<?xml version="1.0" standalone="no"?>
<!DOCTYPE svg PUBLIC "-//W3C//DTD SVG 20010904//EN"
 "http://www.w3.org/TR/2001/REC-SVG-20010904/DTD/svg10.dtd">
<svg version="1.0" xmlns="http://www.w3.org/2000/svg"
 width="807.000000pt" height="707.000000pt" viewBox="0 0 807.000000 707.000000"
 preserveAspectRatio="xMidYMid meet">
<metadata>
Created by potrace 1.13, written by Peter Selinger 2001-2015
</metadata>
<g transform="translate(0.000000,707.000000) scale(0.100000,-0.100000)"
fill="#000000" stroke="none">
<path d="M5900 6733 c-19 -1 -57 -7 -85 -13 -27 -6 -83 -16 -123 -24 -40 -8
-79 -19 -86 -25 -7 -6 -38 -20 -69 -30 -71 -25 -128 -68 -310 -235 -49 -44
-109 -108 -135 -141 -25 -33 -49 -61 -54 -63 -4 -2 -8 -8 -8 -13 0 -9 -36 -65
-50 -79 -3 -3 -13 -21 -24 -40 -10 -19 -40 -76 -67 -126 -27 -51 -49 -99 -49
-107 0 -9 -7 -22 -15 -30 -8 -8 -28 -41 -45 -73 -17 -33 -35 -66 -39 -74 -5
-8 -33 -64 -62 -125 -63 -133 -96 -183 -144 -219 l-36 -27 -44 16 c-24 10 -52
15 -61 11 -9 -3 -29 3 -45 15 -17 11 -58 26 -92 32 -55 9 -69 8 -120 -11 -32
-12 -68 -22 -81 -22 -14 0 -48 -19 -76 -42 -29 -24 -58 -47 -65 -52 -7 -6 -30
4 -66 28 -29 20 -61 36 -69 36 -8 0 -32 9 -53 20 -20 11 -42 20 -48 20 -6 0
-25 11 -42 24 -32 24 -62 34 -182 56 -33 6 -91 18 -130 26 -38 8 -99 18 -135
21 -89 8 -713 6 -802 -2 -40 -4 -141 -8 -224 -10 -195 -3 -290 -25 -494 -111
-19 -8 -42 -19 -50 -24 -8 -6 -24 -14 -35 -20 -11 -5 -38 -22 -61 -37 -22 -15
-69 -47 -105 -70 -35 -23 -71 -48 -79 -55 -9 -7 -39 -28 -67 -45 -29 -18 -87
-67 -129 -109 -42 -42 -90 -84 -106 -94 -17 -10 -51 -38 -76 -62 -26 -24 -71
-63 -99 -87 -29 -24 -53 -48 -53 -52 0 -11 -70 -103 -81 -107 -5 -2 -9 -8 -9
-14 0 -6 -11 -25 -23 -42 -43 -56 -101 -159 -170 -301 -38 -77 -77 -156 -87
-175 -104 -199 -151 -313 -206 -505 -9 -33 -23 -80 -31 -105 -8 -25 -21 -76
-28 -115 -8 -38 -29 -127 -49 -197 -19 -71 -32 -128 -30 -128 3 0 -1 -10 -7
-22 -6 -12 -20 -69 -31 -127 -10 -58 -23 -128 -28 -156 -16 -86 -12 -511 5
-566 4 -11 15 -75 25 -142 15 -104 80 -391 98 -437 3 -8 7 -19 7 -25 1 -5 7
-21 12 -35 6 -14 18 -45 26 -70 23 -66 77 -168 122 -230 118 -164 378 -432
480 -495 17 -10 48 -33 70 -51 22 -17 90 -57 150 -89 61 -32 122 -67 137 -77
14 -10 29 -18 33 -18 4 0 26 -9 49 -19 23 -11 95 -40 161 -66 66 -26 147 -62
180 -81 33 -18 92 -45 130 -59 39 -14 84 -32 102 -40 17 -8 40 -15 52 -15 11
0 48 -9 80 -20 33 -12 81 -25 108 -30 113 -20 201 -38 238 -48 62 -16 185 -41
235 -47 213 -27 275 -31 484 -28 126 2 246 8 266 13 24 6 63 7 111 1 125 -16
331 -2 374 25 11 6 40 15 64 19 42 7 173 56 195 74 6 5 29 12 51 16 22 4 49
12 60 18 11 7 25 12 30 13 6 0 17 4 25 7 8 3 32 11 52 17 21 6 40 16 43 20 3
5 26 18 51 29 24 11 66 35 91 53 122 85 247 185 267 212 10 14 24 26 30 26 18
0 121 117 212 241 11 16 30 41 42 56 170 226 242 333 291 435 12 27 26 50 31
53 5 3 12 19 15 37 4 17 18 51 31 76 13 25 24 53 24 64 0 10 4 26 9 36 24 43
102 283 132 402 49 197 78 532 81 945 3 251 -12 400 -53 530 -12 39 -27 93
-34 120 -7 28 -21 77 -30 110 -9 33 -28 102 -41 154 -14 51 -39 121 -57 155
-40 76 -141 220 -171 243 -12 10 -31 32 -42 48 -44 70 -142 186 -225 268 -54
53 -89 95 -89 107 0 12 9 38 20 60 24 46 25 63 6 98 -7 15 -19 48 -25 74 -6
27 -22 71 -36 100 -29 61 -29 62 -11 85 8 10 31 38 50 61 20 24 36 48 36 52 0
5 6 15 13 22 23 24 164 325 227 483 17 44 43 100 56 124 13 24 22 47 19 51 -3
4 2 11 11 14 8 3 12 10 9 16 -3 5 -2 10 4 10 5 0 23 19 39 43 57 85 185 206
282 268 142 90 276 159 309 159 11 0 30 4 43 9 63 24 116 32 257 35 142 4 158
3 195 -16 25 -13 68 -23 111 -26 39 -3 88 -12 110 -22 76 -33 120 -49 175 -65
73 -22 130 -46 130 -56 0 -4 -9 -11 -20 -14 -32 -10 -26 -58 11 -90 28 -23 34
-24 53 -12 30 20 32 62 4 90 l-23 23 70 2 c73 3 114 24 102 54 -6 17 -71 38
-116 38 -37 0 -50 22 -28 45 22 22 46 19 69 -10 24 -31 70 -33 98 -5 29 29 26
62 -10 83 -34 21 -37 33 -14 59 21 22 6 44 -39 56 -24 6 -30 13 -32 40 -6 75
-47 80 -107 13 l-44 -48 -64 9 c-36 5 -84 21 -107 34 -23 13 -48 24 -55 24 -7
0 -30 9 -51 20 -20 11 -46 20 -57 20 -24 0 -100 30 -100 39 0 9 -131 27 -300
41 -69 6 -138 12 -155 14 -16 1 -46 1 -65 -1z m74 -102 c4 -5 -5 -23 -19 -39
-13 -16 -22 -31 -19 -34 2 -3 -2 -11 -11 -18 -8 -7 -15 -16 -15 -21 0 -10 -24
-41 -54 -70 -24 -23 -82 -43 -101 -35 -22 8 -19 35 16 130 29 80 32 85 62 89
64 8 136 7 141 -2z m191 -9 l50 -7 -35 -22 c-33 -21 -50 -34 -111 -90 -28 -26
-91 -45 -116 -36 -23 9 -6 53 37 95 20 20 40 44 43 53 7 16 44 18 132 7z m242
-25 c14 -13 21 -29 18 -38 -4 -8 -42 -31 -85 -51 -64 -31 -89 -38 -139 -38
-45 0 -63 4 -67 15 -8 20 41 61 94 79 24 9 53 27 64 42 18 22 27 25 57 20 19
-3 45 -16 58 -29z m-678 -37 c-2 -27 -6 -50 -9 -50 -12 0 -26 -44 -29 -89 -3
-51 -19 -71 -56 -71 -34 0 -52 42 -61 139 l-7 70 54 25 c30 13 67 25 82 25 27
1 28 0 26 -49z m866 -45 c70 -42 73 -51 23 -74 -41 -18 -50 -19 -136 -7 -51 7
-95 16 -99 20 -19 19 33 57 102 74 60 14 63 14 110 -13z m-1073 -36 c5 -19 11
-45 14 -58 3 -13 10 -33 15 -43 6 -11 12 -32 14 -48 3 -23 -2 -31 -30 -46 -19
-10 -36 -16 -37 -14 -2 3 -27 31 -56 63 -62 70 -66 97 -20 135 39 33 70 51 83
48 5 -2 13 -18 17 -37z m1376 -54 c23 0 42 -2 42 -6 0 -24 -107 -73 -156 -70
-29 1 -114 40 -114 52 0 23 64 39 125 31 33 -4 79 -7 103 -7z m-1518 -97 c17
-24 37 -51 45 -61 22 -25 18 -43 -12 -67 -33 -26 -64 -22 -129 16 -63 37 -68
66 -18 115 52 51 76 50 114 -3z m-178 -121 c7 -7 34 -28 61 -47 26 -18 47 -38
47 -44 0 -18 -70 -86 -94 -92 -28 -7 -126 26 -139 47 -8 12 -4 25 16 50 14 19
27 41 29 49 3 14 44 48 60 49 4 1 13 -5 20 -12z m-97 -217 c22 -11 45 -20 53
-20 10 0 12 -8 7 -32 -16 -70 -44 -88 -141 -88 l-66 0 7 32 c7 30 36 90 57
116 15 17 38 15 83 -8z m-75 -189 c50 11 64 1 55 -41 -7 -31 -67 -86 -103 -95
-15 -4 -40 -13 -57 -20 -16 -7 -42 -15 -58 -18 -24 -4 -27 -2 -21 17 3 11 17
37 30 57 13 19 24 41 24 48 0 6 12 23 26 36 19 18 31 22 43 15 11 -5 34 -5 61
1z m-30 -208 c-1 -10 -15 -47 -33 -83 -39 -78 -80 -104 -167 -105 -48 0 -55 3
-58 20 -3 25 65 135 84 135 8 0 14 5 14 11 0 6 10 9 23 6 12 -3 40 3 62 13 52
24 75 25 75 3z m-1770 -214 c107 -17 263 -59 300 -81 84 -49 102 -58 124 -58
33 0 170 -74 174 -94 5 -26 -17 -47 -42 -40 -12 4 -55 24 -98 44 -103 52 -195
84 -308 108 -53 12 -112 28 -133 37 -82 34 -387 36 -577 4 -42 -7 -79 -8 -105
-2 -22 5 -56 6 -75 2 -31 -7 -143 -12 -225 -9 -109 3 -212 -1 -239 -9 -17 -5
-56 -15 -86 -22 -54 -11 -110 -35 -120 -49 -3 -4 -21 -15 -40 -24 -19 -9 -52
-32 -73 -51 -21 -18 -52 -37 -69 -40 -50 -11 -131 -70 -235 -172 -24 -24 -48
-43 -52 -43 -9 0 -158 -147 -196 -193 -11 -13 -40 -46 -65 -73 -25 -28 -54
-61 -65 -75 -81 -98 -95 -117 -95 -123 0 -4 -25 -47 -55 -97 -30 -50 -55 -93
-55 -96 0 -8 -90 -143 -107 -160 -6 -7 -17 -30 -24 -50 -6 -21 -37 -85 -67
-143 -49 -96 -103 -240 -121 -330 -4 -19 -14 -46 -21 -60 -8 -14 -13 -37 -12
-53 1 -15 -7 -45 -18 -67 -11 -21 -20 -48 -20 -59 0 -11 -11 -37 -25 -57 -14
-20 -25 -43 -25 -51 0 -7 -8 -30 -19 -51 -29 -58 -68 -189 -86 -288 -28 -154
-22 -647 9 -794 10 -47 22 -110 27 -140 6 -30 15 -68 21 -85 54 -155 85 -259
98 -326 7 -41 57 -132 108 -199 10 -14 25 -36 32 -49 20 -39 297 -306 360
-348 168 -111 305 -185 645 -348 368 -176 493 -227 644 -261 36 -8 89 -23 116
-33 112 -41 422 -76 530 -60 33 4 152 11 265 14 113 3 241 9 285 15 44 5 161
16 260 25 164 15 191 20 305 60 176 60 342 137 430 197 79 54 169 145 234 237
22 31 42 58 46 61 3 3 18 21 34 40 15 19 47 55 69 79 87 94 189 231 248 335
62 108 161 321 153 328 -2 3 8 33 22 69 14 35 32 91 39 124 8 33 27 107 43
165 75 272 109 434 118 575 3 44 10 103 15 131 19 99 7 434 -21 559 -20 94
-56 296 -66 375 -7 55 -35 154 -57 200 -24 51 -91 146 -127 180 -20 19 -63 80
-95 135 -32 55 -81 129 -108 165 -48 63 -182 174 -198 165 -4 -3 -11 -1 -14 5
-9 14 22 60 40 60 22 0 132 -108 205 -200 36 -46 88 -109 117 -140 28 -32 64
-77 79 -99 14 -23 30 -41 34 -41 4 0 14 -15 21 -32 13 -32 106 -178 120 -188
9 -7 39 -67 39 -79 0 -5 5 -22 11 -38 7 -15 14 -46 16 -67 2 -22 9 -48 14 -57
5 -10 9 -28 9 -42 0 -13 12 -61 26 -108 14 -46 31 -104 37 -129 10 -47 14
-656 4 -720 -3 -19 -8 -82 -12 -140 -10 -184 -13 -206 -40 -342 -28 -142 -57
-248 -85 -313 -10 -22 -33 -87 -50 -145 -18 -58 -43 -127 -55 -155 -46 -101
-84 -181 -99 -205 -8 -14 -21 -41 -30 -61 -15 -34 -121 -185 -171 -243 -14
-16 -25 -31 -25 -33 0 -2 -21 -30 -46 -61 -26 -31 -49 -63 -52 -70 -2 -7 -16
-26 -31 -42 -14 -15 -42 -48 -61 -72 -19 -23 -50 -56 -69 -73 -19 -16 -57 -50
-85 -75 -28 -25 -78 -64 -111 -85 -33 -22 -62 -42 -65 -45 -15 -16 -143 -91
-195 -115 -33 -15 -72 -33 -87 -41 -14 -8 -36 -14 -48 -14 -19 0 -64 -16 -110
-39 -19 -10 -198 -65 -275 -85 -45 -11 -145 -17 -400 -21 -187 -4 -396 -8
-465 -10 -69 -1 -130 1 -135 5 -6 5 -56 14 -112 20 -57 6 -133 17 -170 25 -38
8 -78 15 -91 15 -13 0 -60 9 -105 19 -45 11 -143 34 -217 52 -136 32 -342 101
-370 124 -19 15 -87 45 -170 75 -36 13 -74 29 -85 37 -11 7 -25 13 -31 13 -7
0 -40 16 -74 35 -34 19 -67 35 -73 35 -17 0 -149 71 -180 96 -16 13 -34 24
-40 24 -13 0 -58 30 -149 97 -94 70 -341 329 -434 454 -57 76 -142 234 -154
284 -4 16 -24 84 -44 150 -21 66 -41 138 -45 160 -5 22 -16 74 -24 115 -31
147 -41 276 -40 505 1 127 3 244 6 260 13 76 59 306 72 355 129 507 201 737
263 842 18 32 60 115 93 185 83 177 79 168 133 268 57 104 144 238 157 243 5
2 9 8 9 13 0 12 29 47 69 83 19 17 46 42 60 56 14 14 40 37 58 51 28 23 158
138 203 179 46 43 122 102 156 122 22 12 41 25 44 28 3 3 17 11 31 18 14 8 41
26 59 42 48 41 261 146 318 156 20 4 42 10 47 14 15 10 93 28 150 34 28 3 201
8 385 12 184 4 336 8 338 9 8 7 415 -7 472 -16z m1647 -49 c-4 -16 -16 -43
-28 -59 -20 -27 -28 -30 -106 -36 -117 -10 -162 11 -112 53 12 9 31 27 43 39
22 23 42 27 145 31 l64 3 -6 -31z m-592 -80 c22 -6 58 -11 79 -12 22 -2 41 -7
42 -13 2 -5 -12 -22 -32 -36 -31 -24 -38 -26 -77 -17 -63 14 -117 5 -183 -33
-82 -47 -114 -111 -122 -239 l-5 -89 57 -51 c39 -36 56 -59 56 -77 0 -44 36
-92 71 -93 9 0 38 -12 65 -26 77 -41 164 -66 206 -59 21 4 40 11 44 16 3 5 13
9 22 9 9 0 40 15 70 33 48 28 58 41 92 112 52 109 55 126 35 186 -21 65 -6 88
25 38 11 -19 23 -45 26 -59 4 -23 21 -79 31 -107 3 -7 -6 -17 -20 -22 -18 -7
-31 -27 -48 -71 -13 -33 -37 -75 -54 -91 -64 -64 -110 -99 -130 -99 -12 0 -26
-5 -32 -11 -5 -5 -50 -11 -99 -12 -73 -2 -97 2 -134 20 -51 24 -309 271 -332
318 -60 117 -28 280 78 398 87 97 144 116 269 87z m302 -61 c15 -6 61 -11 101
-10 70 1 72 0 72 -23 0 -38 -48 -66 -112 -68 -57 -1 -159 29 -165 49 -3 8 61
63 74 63 1 0 14 -5 30 -11z m-758 -382 c10 -36 31 -83 47 -104 16 -21 33 -44
39 -52 5 -7 22 -25 38 -39 15 -15 27 -31 27 -36 0 -16 -55 -96 -66 -96 -16 0
-55 -39 -110 -107 -26 -32 -53 -62 -60 -66 -8 -4 -18 -26 -24 -48 -14 -51 -4
-65 85 -108 36 -18 69 -39 73 -48 6 -11 28 -17 68 -20 33 -2 99 -13 148 -25
76 -17 95 -19 130 -8 22 7 50 22 62 34 12 11 33 29 46 38 14 9 32 32 41 50 9
18 25 47 37 63 11 17 20 40 20 52 0 26 32 50 79 59 l34 7 -29 -53 c-16 -29
-65 -100 -109 -158 -66 -87 -86 -107 -115 -114 -19 -5 -45 -14 -57 -20 -30
-15 -203 -3 -308 21 -44 10 -102 31 -130 48 -130 77 -295 291 -295 381 0 37
57 145 110 207 52 61 127 165 135 187 7 19 47 38 58 29 4 -4 16 -37 26 -74z
m-1437 -175 c4 -4 9 -41 12 -81 3 -41 9 -77 14 -80 5 -3 9 -33 9 -66 -1 -33 1
-100 2 -148 2 -49 -1 -93 -5 -97 -5 -5 -38 -17 -74 -26 -172 -43 -308 -128
-460 -285 -111 -114 -254 -305 -308 -409 -26 -50 -40 -62 -61 -55 -12 3 -21
10 -21 15 0 5 -18 27 -41 51 -22 23 -52 58 -67 78 -15 20 -37 44 -48 53 -12
10 -27 31 -34 48 -11 27 -11 37 4 68 10 20 24 57 33 82 21 63 177 389 211 442
30 47 106 142 133 168 44 41 107 90 117 90 5 0 16 8 25 18 20 22 144 84 213
106 102 34 322 51 346 28z"/>
</g>
</svg>
