<?xml version="1.0" standalone="no"?>
<!DOCTYPE svg PUBLIC "-//W3C//DTD SVG 20010904//EN"
 "http://www.w3.org/TR/2001/REC-SVG-20010904/DTD/svg10.dtd">
<svg version="1.0" xmlns="http://www.w3.org/2000/svg"
 width="386.000000pt" height="661.000000pt" viewBox="0 0 386.000000 661.000000"
 preserveAspectRatio="xMidYMid meet">
<metadata>
Created by potrace 1.13, written by Peter Selinger 2001-2015
</metadata>
<g transform="translate(0.000000,661.000000) scale(0.100000,-0.100000)"
fill="#000000" stroke="none">
<path d="M191 6603 c-23 -5 -112 -86 -144 -133 -21 -31 -22 -76 -2 -84 9 -3
44 -66 79 -139 59 -123 75 -167 82 -224 1 -12 7 -37 13 -55 6 -18 13 -63 15
-100 l4 -67 -40 21 c-56 29 -128 35 -162 13 -52 -35 -16 -100 62 -110 26 -4
62 -11 81 -17 l35 -11 -35 -18 c-19 -9 -48 -32 -65 -51 -32 -33 -53 -91 -37
-101 15 -10 123 49 163 88 22 21 41 37 43 34 9 -11 79 -378 74 -390 -3 -9 -8
-6 -15 12 -5 14 -23 45 -38 70 -16 24 -34 53 -40 64 -28 50 -92 13 -96 -56 -1
-25 3 -44 9 -46 7 -3 17 -21 24 -41 6 -20 17 -44 24 -52 8 -8 27 -44 44 -80
16 -36 46 -80 65 -99 52 -51 87 -176 101 -361 3 -47 15 -115 26 -151 20 -68
26 -179 10 -179 -5 0 -11 4 -13 8 -4 11 -109 78 -135 86 -26 8 -36 -14 -23
-50 6 -14 10 -36 10 -49 0 -13 15 -40 35 -61 l35 -37 -31 -49 c-24 -37 -32
-61 -33 -101 -1 -49 1 -52 24 -55 47 -5 87 31 105 95 56 192 75 165 91 -127 3
-69 13 -154 21 -190 21 -93 30 -161 37 -275 4 -55 12 -136 18 -180 6 -44 11
-165 10 -270 -2 -185 5 -270 33 -425 8 -41 19 -113 25 -160 6 -47 19 -119 30
-161 10 -42 21 -96 24 -120 7 -61 20 -118 49 -229 43 -164 58 -258 88 -559 5
-52 12 -104 16 -115 3 -12 8 -52 9 -91 2 -38 8 -106 14 -150 5 -44 12 -240 15
-435 6 -339 11 -573 14 -614 1 -16 7 -18 44 -13 51 7 133 51 148 79 7 14 9 52
5 107 -10 147 -14 239 -20 466 -4 121 -9 227 -12 235 -3 8 -9 60 -14 115 -5
55 -14 141 -21 190 -6 50 -13 194 -14 320 -2 236 -7 281 -51 437 -16 59 -24
113 -24 169 0 45 -4 98 -9 118 -48 185 -51 241 -17 316 27 57 24 99 -7 119
-12 8 -22 5 -42 -14 -23 -22 -25 -22 -26 -4 0 10 -2 30 -4 44 -4 29 -14 162
-19 265 -2 39 -13 120 -24 180 -42 223 -54 313 -62 460 -5 83 -14 191 -20 240
-27 217 -36 367 -24 380 7 7 56 15 112 18 54 4 117 13 139 21 68 24 286 135
328 168 6 4 35 27 65 50 90 70 244 174 298 202 46 24 131 13 168 -21 28 -26
29 -39 5 -156 -7 -33 -10 -65 -7 -73 11 -28 130 -72 213 -79 96 -9 134 1 243
61 47 26 110 60 140 76 30 16 75 49 100 72 25 24 52 46 60 49 15 5 143 109
210 171 34 31 133 96 147 96 3 0 14 6 22 14 22 19 126 52 189 61 73 10 242
-12 328 -42 68 -23 73 -24 102 -9 45 23 55 49 63 156 8 93 15 134 40 215 8 28
13 142 14 370 2 401 7 431 83 509 62 64 72 83 72 141 0 54 7 52 -116 21 -155
-39 -205 -63 -319 -155 -27 -23 -54 -41 -59 -41 -5 0 -18 -8 -28 -17 -14 -13
-36 -16 -96 -15 -43 2 -94 7 -113 12 -58 17 -237 12 -335 -10 -120 -26 -184
-56 -283 -132 -46 -34 -93 -70 -104 -78 -12 -8 -26 -20 -30 -27 -4 -7 -12 -13
-16 -13 -4 0 -27 -18 -50 -40 -76 -72 -219 -90 -299 -37 -35 24 -72 89 -72
128 -1 52 -27 120 -62 162 l-36 44 -89 7 c-48 3 -100 8 -116 10 -15 2 -67 -8
-116 -24 -146 -46 -231 -68 -346 -89 -66 -12 -150 -37 -209 -61 -55 -22 -136
-49 -180 -60 -45 -10 -108 -26 -141 -34 -134 -35 -171 -14 -199 108 -10 43
-29 111 -41 150 -13 39 -31 109 -41 156 -17 87 -70 250 -99 308 -16 31 -24 34
-74 25z m116 -282 c8 -36 17 -82 20 -101 3 -19 18 -73 33 -120 28 -84 60 -222
60 -259 0 -10 -7 -22 -16 -25 -8 -3 -13 -2 -9 3 3 5 -1 15 -8 23 -8 7 -14 28
-15 47 -1 39 -10 51 -22 31 -8 -13 -10 -13 -10 1 0 8 5 20 12 27 9 9 7 13 -5
18 -9 3 -17 15 -17 25 0 10 -5 19 -11 19 -7 0 -9 11 -5 30 4 22 2 30 -9 30
-10 0 -15 11 -15 35 0 19 -5 35 -11 35 -7 0 -9 12 -7 30 3 17 1 33 -4 36 -4 3
-8 16 -8 29 0 13 -5 27 -10 30 -6 4 -9 12 -8 18 3 17 -33 90 -49 100 -18 11
-8 45 26 80 l26 28 23 -52 c13 -29 30 -82 39 -118z m3503 -57 c-10 -27 -75
-94 -90 -94 -12 0 -38 -74 -48 -140 -11 -67 -9 -423 2 -520 8 -68 -8 -182 -39
-275 -16 -49 -25 -101 -28 -171 -2 -55 -7 -106 -11 -112 -11 -18 -40 -15 -119
12 -99 33 -229 50 -328 43 -45 -4 -87 -11 -93 -15 -6 -5 -24 -12 -41 -16 -49
-12 -173 -93 -284 -185 -57 -47 -124 -101 -150 -120 -25 -18 -64 -50 -86 -71
-22 -21 -107 -72 -191 -115 -140 -71 -157 -77 -215 -78 -70 -2 -197 36 -207
61 -2 7 3 46 13 86 16 72 16 74 -5 115 -11 23 -35 50 -51 60 -42 26 -132 36
-172 20 -34 -13 -252 -162 -353 -240 -61 -47 -245 -145 -339 -180 -78 -29
-331 -43 -372 -21 -14 8 -9 14 28 32 117 59 137 102 123 273 -10 119 -9 122
17 291 17 111 19 140 9 200 -6 39 -17 85 -25 101 -7 17 -25 56 -39 88 -14 32
-26 60 -26 62 0 2 -11 29 -25 58 -13 30 -32 76 -41 103 -20 62 -75 161 -108
197 -14 15 -36 27 -50 27 -30 0 -56 9 -56 21 0 20 50 32 144 34 59 2 119 10
144 19 23 8 46 16 50 16 30 4 138 40 252 85 74 30 160 56 190 60 30 3 71 11
91 16 21 5 57 13 80 18 24 5 91 23 149 41 94 28 113 31 175 24 39 -4 84 -8
102 -9 75 -4 93 -51 143 -370 5 -33 14 -121 20 -195 11 -154 15 -187 32 -285
16 -94 15 -579 -1 -660 -17 -83 -17 -87 -5 -92 26 -9 54 177 54 357 0 148 -25
535 -39 595 -5 22 -9 51 -9 65 0 14 -3 76 -7 138 -5 61 -6 112 -3 112 3 0 25
-9 49 -20 93 -42 223 -16 320 63 260 213 337 261 454 282 146 25 194 28 281
16 49 -7 106 -15 127 -18 103 -14 167 11 304 123 63 52 124 80 204 94 33 6 70
15 82 19 28 11 30 9 17 -25z m-3364 -570 c25 -7 38 -62 49 -199 4 -44 13 -120
21 -170 8 -49 17 -162 20 -250 6 -190 36 -439 64 -527 11 -35 19 -83 19 -108
-1 -25 -3 -37 -6 -27 -5 20 -14 21 -33 5 -8 -7 -12 -9 -8 -5 3 5 0 20 -7 34
-10 19 -11 31 -3 49 14 29 4 42 -17 24 -21 -17 -28 -8 -16 23 11 29 4 42 -16
26 -18 -15 -17 -4 3 26 14 22 14 26 0 47 -21 29 -20 35 4 41 32 8 25 35 -7 29
l-28 -5 19 22 c14 16 17 24 9 32 -6 6 -9 18 -6 25 3 8 0 14 -7 14 -6 0 -8 5
-4 12 4 6 -1 17 -10 24 -14 10 -15 17 -7 33 16 28 14 34 -9 28 -25 -6 -25 6
-3 44 14 24 15 31 5 38 -8 4 -12 14 -11 22 6 26 -30 66 -54 63 -17 -3 -31 8
-60 45 -49 65 -107 168 -107 192 0 42 29 14 76 -72 51 -95 83 -134 91 -111 6
17 23 15 23 -3 0 -25 30 -17 42 11 10 21 9 27 -3 35 -12 8 -12 10 0 18 12 8
12 12 2 24 -7 9 -9 26 -5 41 6 26 -10 38 -19 14 -2 -7 -3 14 -2 47 1 33 7 61
14 63 23 8 10 24 -15 19 -27 -5 -28 0 -9 46 5 12 2 17 -10 17 -12 0 -15 5 -9
23 3 12 11 28 16 35 8 8 6 12 -4 12 -8 0 -20 -6 -27 -12 -10 -11 -11 -9 -5 7
4 11 11 25 16 32 10 13 -7 27 -22 18 -14 -9 -12 5 5 35 8 14 14 33 15 44 0 15
-3 16 -15 6 -18 -15 -18 -10 -5 24 10 27 19 30 56 20z m150 -227 c13 -38 28
-75 33 -81 5 -6 29 -61 54 -122 62 -151 72 -244 41 -371 -12 -49 -17 -119 -18
-248 -2 -147 -5 -186 -19 -210 -9 -18 -17 -24 -18 -15 -1 8 -3 24 -4 35 -2 19
-27 119 -45 180 -18 65 -27 154 -35 390 -3 88 -10 189 -15 225 -21 132 -30
223 -30 283 l1 62 16 -29 c8 -16 26 -60 39 -99z m78 -1319 c7 -117 20 -226 41
-343 7 -45 12 -122 10 -175 -2 -57 3 -127 12 -175 8 -44 19 -105 23 -135 5
-30 13 -77 19 -105 25 -113 41 -236 42 -325 2 -185 14 -271 75 -515 21 -88 40
-191 44 -250 5 -71 17 -129 40 -200 33 -100 33 -101 36 -320 2 -209 18 -467
29 -485 10 -16 24 -269 30 -525 3 -137 7 -299 10 -360 3 -60 2 -115 -2 -121
-4 -6 -27 -21 -51 -33 -31 -16 -42 -18 -42 -8 0 8 11 19 25 25 23 11 36 42 17
42 -10 0 -10 86 1 96 11 11 9 36 -3 29 -6 -3 -10 -2 -10 4 0 5 5 13 10 16 15
9 12 25 -5 25 -12 0 -13 4 -5 19 13 26 13 31 -5 31 -13 0 -13 3 -3 20 11 17
10 22 -1 30 -11 6 -12 12 -4 22 6 7 13 25 17 41 5 21 3 27 -10 27 -13 0 -12 5
6 27 19 24 20 29 6 39 -20 14 -21 38 -2 53 11 9 11 17 2 36 -6 14 -14 25 -19
25 -4 0 0 12 10 27 12 17 14 28 6 30 -6 2 -9 13 -6 23 3 11 0 20 -6 20 -9 0
-9 5 0 21 8 17 8 23 -2 30 -10 6 -10 13 -1 33 6 14 7 28 3 31 -5 3 -7 14 -4
25 4 14 0 20 -11 20 -15 0 -15 3 -2 34 10 23 11 36 4 38 -7 3 -6 12 3 27 10
17 11 25 3 28 -7 2 -10 13 -7 23 3 11 0 20 -6 20 -14 0 -15 37 -1 45 16 10 11
28 -6 21 -13 -5 -15 -1 -10 20 5 17 3 30 -5 35 -10 6 -10 13 -1 34 13 27 8 50
-9 40 -5 -4 -4 5 3 19 13 31 5 44 -17 26 -20 -16 -19 -5 2 31 14 24 15 31 5
38 -10 6 -10 10 3 21 19 16 19 30 0 30 -17 0 -20 26 -5 35 6 4 8 15 5 25 -3
11 -2 27 3 37 5 10 6 32 2 48 -3 17 -2 40 4 53 7 17 6 26 -3 32 -8 4 -10 13
-6 20 5 7 9 23 11 34 1 12 5 29 9 39 4 9 3 17 -3 17 -5 0 -12 -7 -16 -15 -3
-8 -13 -15 -22 -15 -10 0 -14 5 -10 15 3 8 9 22 12 30 10 25 -13 17 -35 -12
l-21 -28 12 30 c7 17 16 33 20 36 9 6 5 54 -7 82 -7 17 -8 17 -26 1 -19 -17
-19 -17 -4 19 15 37 21 97 8 97 -3 0 -15 -7 -25 -17 -28 -25 -21 -7 12 31 31
35 25 61 -7 34 -14 -11 -16 -11 -8 2 4 8 15 23 23 33 11 13 13 20 5 28 -6 6
-9 18 -6 25 6 17 -9 18 -26 2 -10 -11 -11 -7 -5 17 4 17 11 33 17 36 5 4 6 16
2 29 -5 15 -13 20 -26 17 -16 -4 -19 -1 -14 14 4 11 2 19 -4 19 -14 0 -14 57
-1 65 5 3 10 13 10 21 0 8 -5 12 -10 9 -6 -3 -10 3 -10 15 0 33 -19 62 -37 56
-9 -4 -13 -1 -11 6 3 7 13 15 24 17 23 4 44 20 44 33 0 6 -7 8 -15 4 -10 -4
-15 2 -17 17 -2 32 -1 40 7 60 12 29 -20 20 -34 -9 -16 -35 -25 -25 -10 12 16
40 21 104 8 104 -6 0 -8 9 -4 20 8 24 -2 26 -27 3 -24 -21 -23 -6 3 36 23 39
18 52 -11 26 -32 -29 -32 -12 0 27 33 39 24 62 -10 28 -25 -25 -26 -13 0 20
23 30 26 52 6 48 -8 -2 -16 2 -18 7 -2 6 12 11 30 13 20 2 32 8 29 15 -2 7
-18 11 -37 9 -21 -2 -30 0 -25 7 3 6 15 11 26 11 12 0 19 5 16 13 -2 6 -15 11
-28 9 l-24 -2 23 16 c28 21 28 34 0 34 l-23 0 25 20 c22 17 23 19 7 26 -14 5
-15 9 -5 21 7 8 12 39 13 69 0 47 -2 53 -17 48 -19 -6 -24 6 -9 21 5 6 12 21
16 34 6 20 4 23 -9 18 -14 -6 -16 -3 -11 13 4 13 2 20 -8 20 -11 0 -13 16 -10
78 8 155 4 262 -10 262 -5 0 -2 11 7 25 15 23 15 26 1 31 -10 4 -13 14 -9 30
3 13 2 24 -4 24 -5 0 -7 11 -4 25 5 27 -7 32 -26 13 -22 -22 -26 2 -4 25 36
38 20 81 -16 45 -9 -9 -8 1 3 31 18 53 18 51 0 51 -17 0 -20 16 -6 25 11 6 9
100 -1 111 -4 3 -2 16 3 27 8 14 8 21 0 27 -13 7 -4 40 13 52 28 19 34 5 40
-94z"/>
</g>
</svg>
